<svg id="Layer_1" data-name="Layer 1" xmlns="http://www.w3.org/2000/svg" viewBox="0 0 815.58 217.99"><title>hugin</title><path d="M210.21,125c-7.65-2.71-16.8-6.5-25.9-10.56,0,0,28.6-6.36,25.36-9.9s-50.73-1.88-50.73-1.88c-10.76-5.19-18.33-9.06-18.33-9.06s3.41-4-6.43-8.59c-8.05-3.8-29.94-14.19-29.94-14.19S105.56,65,87.26,58l-1.55-.59a.3.3,0,0,0-.15,0,28.27,28.27,0,0,0-11.42-1.24C66.59,51,55.9,45.1,55.9,45.1L54.66,26.55C57.59,18.85,74.3,20,74.3,20s-1.64-6.47-7-8.28A95.71,95.71,0,0,0,54,8.7L44.57,2.6c-15.39-5.74-23.74-.15-23.74-.15S12,13.85,9.06,20.94L.2,86.92c.33,9.21,26.66,54.88,26.68,54.93s14.67,8.31,19.44,9.9c2.26.77,4.59,1.41,7,2,0,.06,0,.11-.05.17-.14,1.59-1,14.33,5,23L46,210.16h0l-.73.44a12.92,12.92,0,0,1-2.26.86A34,34,0,0,1,35,212.55c-2.89.08-6.21-.21-8.69,1.71a5.43,5.43,0,0,0-1.21,1.31,7,7,0,0,0-.65,1.21c-.25.68-.36,1.08-.36,1.08a.11.11,0,0,0,0,.12.08.08,0,0,0,.13,0s.22-.35.64-.9a6.63,6.63,0,0,1,.84-.84,4.06,4.06,0,0,1,1.22-.78c2.41-1.22,5.42-.09,7.9.22a31.32,31.32,0,0,0,8.88-.15,13.4,13.4,0,0,0,2.94-.86,6.69,6.69,0,0,0,.65.44,5,5,0,0,0,1.35.58,12,12,0,0,0,4.66.41c1.59-.09,3.18-.3,4.77-.41a3.36,3.36,0,0,1,3.5,1.51,3,3,0,0,1,.3.68.11.11,0,0,0,.08.08.09.09,0,0,0,.1-.09,2.46,2.46,0,0,0,0-.84,3.67,3.67,0,0,0-.27-.95,4,4,0,0,0-.71-1.1,5.34,5.34,0,0,0-2.85-1.4c-2.73-.39-5.75-.39-8.28-1.67-1.11-.57-.68-.88-.6-1.5L71.65,157a2.37,2.37,0,0,0,.09-.65v0A88.41,88.41,0,0,0,91,154.91h0c.14.66,3.28,14.79,14.23,22.94l-8.65,32.26a.49.49,0,0,0-.17.06s-.27.17-.73.43a11.1,11.1,0,0,1-2.25.86,33.44,33.44,0,0,1-7.93,1.08c-2.89.09-6.21-.21-8.68,1.71a5.51,5.51,0,0,0-1.22,1.32,7.61,7.61,0,0,0-.64,1.21c-.26.68-.37,1.08-.37,1.08a.11.11,0,0,0,0,.12.09.09,0,0,0,.13,0s.22-.35.64-.9a6.63,6.63,0,0,1,.84-.84,4.34,4.34,0,0,1,1.23-.79c2.41-1.21,5.41-.08,7.9.22a31,31,0,0,0,8.88-.14,13.57,13.57,0,0,0,2.94-.86c.2.15.41.29.64.44a5.11,5.11,0,0,0,1.35.57,11.65,11.65,0,0,0,4.66.41c1.6-.08,3.18-.3,4.78-.41a3.36,3.36,0,0,1,3.49,1.52,2.36,2.36,0,0,1,.3.68.08.08,0,0,0,.08.07.1.1,0,0,0,.11-.08,3.15,3.15,0,0,0,0-.84,3.41,3.41,0,0,0-.26-.95,3.84,3.84,0,0,0-.72-1.1,5.2,5.2,0,0,0-2.84-1.4c-2.73-.39-5.76-.39-8.29-1.68-1.14-.58-.65-.89-.59-1.55l13.57-41.24a1.28,1.28,0,0,0,0-.7c-2.92-11.73-.83-19.64-.81-19.73a1.23,1.23,0,0,0-.16-1,62.2,62.2,0,0,0,8.25-5.08c5.31-3.89,9.66-10.74,10.7-12.47,3.06.22,6.15.42,9.23.59,0,0,48.79,34.43,61.19,34.43,5.14,0-32.33-33-32.33-33,18.44.74,34.1.91,40.7.17C224.24,130.85,210.21,125,210.21,125ZM32.25,21.25c-5.12,0-3.77-4.92-3.77-4.92a7.92,7.92,0,0,1,8.9,0S35.76,21.25,32.25,21.25Z" transform="translate(-0.2 -0.01)" style="fill:#fff"/><path d="M368.05,166.58c.27,0,.54.4.8,1.2a2.55,2.55,0,0,1,0,2,14.83,14.83,0,0,1-2.9,4,26,26,0,0,1-5.4,4.2,36.24,36.24,0,0,1-7.6,3.4,29.28,29.28,0,0,1-9.1,1.4,13.91,13.91,0,0,1-6.6-1.4,15.67,15.67,0,0,1-4.3-3.3,11.57,11.57,0,0,1-2.4-4,11.74,11.74,0,0,1-.7-3.5,9.72,9.72,0,0,1,2.1-5.7q2.1-2.9,5.4-6.8a114.37,114.37,0,0,0,7-9.3,76.18,76.18,0,0,0,7-13.1,92.38,92.38,0,0,0,5.4-18.2,128.59,128.59,0,0,0,2.1-24.9q0-22.59-10-34.6a32,32,0,0,0-25.8-12,29.55,29.55,0,0,0-10.2,2.3,48.31,48.31,0,0,0-11.5,6.4,43.14,43.14,0,0,0-9.5,9.8,22.6,22.6,0,0,0-4.2,12.5q-.19,3.6-.3,8.4c-.06,3.2-.1,6.6-.1,10.2v22q.21,10.8.8,19.2t1.8,10.6c1.07,1.6,2.9,2.54,5.5,2.8a70.94,70.94,0,0,0,7.3.4c1.2,0,1.8.87,1.8,2.6a2.12,2.12,0,0,1-2.4,2.4c-.8,0-2.16,0-4.1-.1s-4.06-.1-6.4-.1-4.66,0-7-.1-4.23-.1-5.7-.1q-5.19,0-11,.1l-11,.2c-3.46.07-6.5.17-9.1.3s-4.3.27-5.1.4c-.4,0-.66-.27-.8-.8a4.19,4.19,0,0,1,0-1.8,4.57,4.57,0,0,1,.8-1.8,1.62,1.62,0,0,1,1.2-.8,47.66,47.66,0,0,0,8.1-.7q4.11-.69,5.1-1.5,1.6-1.2,2.9-7.8t2.3-16.4q1-9.8,1.6-21.5t.6-22.9q0-22.59-.2-35.4a165.21,165.21,0,0,0-1.1-19.1c-.6-4.2-1.46-6.76-2.6-7.7a6.86,6.86,0,0,0-4.5-1.4c-.53,0-1.3,0-2.3.1s-2,.17-3.1.3-2,.24-2.9.3-1.43.1-1.7.1-.43-.26-.5-.8a14.17,14.17,0,0,1-.1-1.6,17.27,17.27,0,0,1,.2-2.2c.14-.93.54-1.4,1.2-1.4h2.6c1.07,0,2.74,0,5,.1s5.3.14,9.1.2,8.77.1,14.9.1A451.26,451.26,0,0,0,332.15,9a239.25,239.25,0,0,0,40.3-8c1.2-.4,2-.43,2.3-.1a2.34,2.34,0,0,1,.5,1.7,6.91,6.91,0,0,1-1.7,3.7,31.91,31.91,0,0,1-4.2,4.6,26.84,26.84,0,0,1-5.4,3.9,11.36,11.36,0,0,1-5.5,1.6c-2.26,0-5.06-.06-8.4-.2l-10.8-.4q-5.79-.19-12.2-.3t-12.6-.1a72.52,72.52,0,0,0-16.3,1.5q-6.3,1.5-7.3,4.5-1.8,4.2-2.2,12.5t-.4,24.3q2-2,7.5-6.4a119.07,119.07,0,0,1,13-8.9,113.27,113.27,0,0,1,16.3-8,47.42,47.42,0,0,1,17.6-3.5,43.61,43.61,0,0,1,16.2,3.1,45.68,45.68,0,0,1,13.8,8.5,41.87,41.87,0,0,1,9.6,12.7,35,35,0,0,1,3.6,15.7,58.94,58.94,0,0,1-2.6,17.6,96.49,96.49,0,0,1-6.6,16.1q-4,7.71-8.6,14.9t-8.6,14a100.6,100.6,0,0,0-6.6,13.3,34.17,34.17,0,0,0-2.6,12.7,9.51,9.51,0,0,0,2.5,6.7q2.5,2.7,7.9,2.7a11.07,11.07,0,0,0,4.6-.9,5.62,5.62,0,0,0,2.6-1.9Z" transform="translate(-0.2 -0.01)" style="fill:#fff"/><path d="M394.05,72.58c-1.07-.26-1.57-.8-1.5-1.6s.57-1.26,1.5-1.4c.4-.13,1.67-.6,3.8-1.4s4.7-1.73,7.7-2.8,6.14-2.2,9.4-3.4,6.17-2.2,8.7-3l3.3-1.1a4.94,4.94,0,0,1,1.5-.3,2.77,2.77,0,0,1,1.4.5,1.1,1.1,0,0,1,.4,1.5,43,43,0,0,0-1.3,7.6q-.7,6-1.3,13.3T426.55,95q-.49,7.2-.5,11.4,0,16,6.8,24.7t21.2,8.7a22.65,22.65,0,0,0,19.8-10q1.8-2.59,2.4-11.4c0-1.06,0-2.46.1-4.2s.13-3.56.2-5.5.14-3.8.2-5.6.1-3.3.1-4.5a156,156,0,0,0-.5-17.1,48.79,48.79,0,0,0-2.1-11.7q-.6-2.4-2.4-2.4c-.8,0-1.56,0-2.3.1s-1.17-.5-1.3-1.7c0-.4.4-.83,1.2-1.3a47.69,47.69,0,0,1,4.6-2.1c2.14-.8,4.5-1.6,7.1-2.4s5.17-1.46,7.7-2a65.38,65.38,0,0,1,6.8-1.1,9.5,9.5,0,0,1,4.4.3.8.8,0,0,0,.3.5,2.72,2.72,0,0,1,.5,1.3q.4,1.2-.5,7.5T498.45,87q-.79,9.81-1.4,19t-.6,14q0,9.4,3.5,14.9t8.7,5.5a15.51,15.51,0,0,0,6.5-1.4,27.52,27.52,0,0,0,4.5-2.4c1.07,0,1.64.47,1.7,1.4s-.16,1.54-.7,1.8q-3,2-8.3,5t-11,5.7q-5.7,2.7-10.9,4.6a25.84,25.84,0,0,1-8.4,1.9c-1.07,0-2-.7-2.9-2.1a19,19,0,0,1-2.1-5.1,47.21,47.21,0,0,1-1.2-6.2,45.18,45.18,0,0,1-.4-5.6q-4.2,3-9.6,6.3t-11.2,6.2a77.77,77.77,0,0,1-11.5,4.7,35.08,35.08,0,0,1-10.5,1.8q-12.19,0-20-6.5a21,21,0,0,1-7.8-16.9q0-2.19.4-6.6t1-10q.6-5.6,1-12t.4-12.4q0-9.19-2.9-14.1t-7.5-5.5Z" transform="translate(-0.2 -0.01)" style="fill:#fff"/><path d="M652.45,67.58q-4,3-13.3,5.3a89.74,89.74,0,0,1-21.5,2.3c-1.6,0-3.37,0-5.3.1s-3.43.1-4.5.1A36.49,36.49,0,0,1,606,91a123.12,123.12,0,0,1-6.2,15.1q-3.5,7.11-6.5,12.5t-3,7.8a9,9,0,0,0,2.8,6.2,46.77,46.77,0,0,0,7,6q4.2,3,9,6.1a93.12,93.12,0,0,1,9,6.6,36.36,36.36,0,0,1,7,7.7,16.23,16.23,0,0,1,2.8,9.2q0,7.2-5.5,15.8a67.06,67.06,0,0,1-14.9,16.1,85.61,85.61,0,0,1-22,12.5,72,72,0,0,1-26.8,5,80.55,80.55,0,0,1-14.3-1.4,65,65,0,0,1-14.2-4.2,36.45,36.45,0,0,1-10.8-6.9,13,13,0,0,1-4.3-9.7q0-3.19,4.9-8.4a135.67,135.67,0,0,1,11.3-10.6q6.4-5.4,12.6-10.4a72.8,72.8,0,0,0,8.8-8,2.56,2.56,0,0,1,1.5.8,2.36,2.36,0,0,1,.9,1.8.4.4,0,0,1-.1.3.4.4,0,0,0-.1.3c-1.33,1.07-3,2.4-4.9,4s-3.83,3.33-5.7,5.2a32.07,32.07,0,0,0-4.8,6.1,12.53,12.53,0,0,0-2,6.5,13.19,13.19,0,0,0,3.3,8.3,32.37,32.37,0,0,0,8.6,7.3,51.32,51.32,0,0,0,12.1,5.2,48.75,48.75,0,0,0,13.8,2q14.4,0,21.9-6.3t7.5-17.7a17.33,17.33,0,0,0-2.7-9.2,42.41,42.41,0,0,0-6.6-8.2,70.14,70.14,0,0,0-8.6-7.1q-4.69-3.3-8.6-6.1a80.56,80.56,0,0,1-6.6-5.2c-1.8-1.6-2.7-3.06-2.7-4.4a9.77,9.77,0,0,1,1.1-4.1c.73-1.53,1.57-3.06,2.5-4.6s1.77-2.93,2.5-4.2a6.61,6.61,0,0,0,1.1-2.9c0,.14-.13-.06-.4-.6a16.94,16.94,0,0,1-4,2.8,40.2,40.2,0,0,1-6.1,2.6,59.2,59.2,0,0,1-7.4,2,38.71,38.71,0,0,1-7.9.8,33.54,33.54,0,0,1-13.4-2.5,27.76,27.76,0,0,1-15.6-16.4,34,34,0,0,1-2-11.7A41.67,41.67,0,0,1,522,87a38.76,38.76,0,0,1,6.8-11.2,41.25,41.25,0,0,1,8.7-7.5q4.6-2.9,8.4-4.9a44.81,44.81,0,0,1,5.7-2.3q3.3-1.09,7.1-2t7.8-1.5a51.34,51.34,0,0,1,7.6-.6q12.6,0,20.4,2.8t10.2,5a74.77,74.77,0,0,0,8.6.6q6.19.21,13.2.2h24.2a9.69,9.69,0,0,0,2-.2c.67.14.93.47.8,1A1.76,1.76,0,0,1,652.45,67.58Zm-82.4,54a14.12,14.12,0,0,0,5.6-1.2,13.13,13.13,0,0,0,5.1-4.1,23.63,23.63,0,0,0,3.8-7.8,42.65,42.65,0,0,0,1.5-12.3,50.26,50.26,0,0,0-1.5-12.6,30,30,0,0,0-4.5-10,21,21,0,0,0-7.4-6.5,22.19,22.19,0,0,0-10.4-2.3,19.14,19.14,0,0,0-14.6,6.5q-6,6.51-6,18.5a32.08,32.08,0,0,0,2.4,12.4,34.4,34.4,0,0,0,6.3,10.1,29.15,29.15,0,0,0,9.1,6.8A24.19,24.19,0,0,0,570.05,121.58Z" transform="translate(-0.2 -0.01)" style="fill:#fff"/><path d="M663.85,120.38q0,4.2.2,8.1a19.42,19.42,0,0,0,1.4,6.7,10.39,10.39,0,0,0,3.6,4.5,11.6,11.6,0,0,0,6.8,1.7,28.13,28.13,0,0,0,5-.5,39.49,39.49,0,0,0,5.3-1.3c1.67-.53,3.13-1.06,4.4-1.6a8.9,8.9,0,0,0,2.3-1.2c.4-.4.67-.4.8,0a3.55,3.55,0,0,1,.1,1.5,6.07,6.07,0,0,1-.5,1.8,2.93,2.93,0,0,1-1,1.3c-1.33.67-3.67,1.87-7,3.6s-7.27,3.54-11.8,5.4a118.79,118.79,0,0,1-12.5,4.7,35.29,35.29,0,0,1-10.1,1.9,9.32,9.32,0,0,1-7.2-2.8,9.89,9.89,0,0,1-2.6-7,23.68,23.68,0,0,1,.1-2.4c.07-.66.17-1.53.3-2.6.13-1.33.37-3.76.7-7.3s.67-7.5,1-11.9.63-8.83.9-13.3.4-8.3.4-11.5v-7a62.73,62.73,0,0,0-.6-9.2,16.23,16.23,0,0,0-2-6.2,8.34,8.34,0,0,0-2.5-2.3,7.07,7.07,0,0,0-3.7-.9,6.26,6.26,0,0,0-2.4.5,5.13,5.13,0,0,1-1.8.5c-.27,0-.7-.4-1.3-1.2s-.57-1.4.1-1.8a53.63,53.63,0,0,1,5.8-3.2l9.6-4.8q5.6-2.79,10.8-4.9c3.47-1.4,5.93-2.1,7.4-2.1a3.24,3.24,0,0,1,3,1.3,5.48,5.48,0,0,1,.8,2.9v.8a53.21,53.21,0,0,1-.6,6.4q-.6,4.41-1.3,10.8t-1.3,14.8q-.6,8.4-.6,18.2Zm-8-104a9.64,9.64,0,0,1,3.3,2.2,62.71,62.71,0,0,1,4.7,4.6c1.6,1.74,3,3.4,4.2,5s1.8,2.67,1.8,3.2-.8,1.67-2.4,3a67.29,67.29,0,0,1-5.5,4.1c-2.07,1.4-4.07,2.64-6,3.7a10.48,10.48,0,0,1-4.1,1.6c-.4,0-1.37-.63-2.9-1.9s-3.1-2.7-4.7-4.3-3-3.16-4.3-4.7-1.9-2.56-1.9-3.1.87-1.7,2.6-3.1,3.63-2.86,5.7-4.4a70.18,70.18,0,0,1,6-4A33.35,33.35,0,0,1,655.85,16.38Z" transform="translate(-0.2 -0.01)" style="fill:#fff"/><path d="M719.65,102.38c-.14,1.2-.27,2.27-.4,3.2s-.24,2-.3,3.2-.14,2.7-.2,4.5-.1,4.17-.1,7.1a111.22,111.22,0,0,0,.5,11.8,31.12,31.12,0,0,0,1.5,7.3,7.29,7.29,0,0,0,2.5,3.7,6.49,6.49,0,0,0,3.7,1,12.28,12.28,0,0,0,3-.4c.26,0,.5.37.7,1.1s.16,1.24-.1,1.5a32.19,32.19,0,0,1-4.7,2.9,80.79,80.79,0,0,1-7.9,3.7q-4.41,1.8-9.1,3.2a28.82,28.82,0,0,1-7.9,1.4,11.13,11.13,0,0,1-4.4-.7c-1.07-.47-1.6-1-1.6-1.7s.06-1.06.2-1.2a4.64,4.64,0,0,0,.6-1,11.19,11.19,0,0,0,.6-2.5c.13-1,.33-2.16.6-3.5q.39-2.79.8-7.1c.26-2.86.53-6,.8-9.4s.5-6.93.7-10.6.3-7.23.3-10.7c0-1.46,0-3.3-.1-5.5s-.17-5-.3-8.5a45.34,45.34,0,0,0-1.3-9.9,22.15,22.15,0,0,0-2.8-6.6,11.87,11.87,0,0,0-3.8-3.7,8.25,8.25,0,0,0-4.1-1.2h-2a10.36,10.36,0,0,0-2,.2c-.54,0-.8-.6-.8-1.8a1,1,0,0,1,.3-.7,15.36,15.36,0,0,1,1.9-1.3c1.73-1.2,4.06-2.66,7-4.4s5.93-3.33,9-4.8,6-2.73,8.7-3.8a19.2,19.2,0,0,1,6.3-1.6q5.79,0,5.8,6.6c0,.67-.07,1.87-.2,3.6s-.24,3.5-.3,5.3-.17,3.5-.3,5.1-.2,2.67-.2,3.2q4.2-4,9-8.2a80.9,80.9,0,0,1,10.4-7.7,60.26,60.26,0,0,1,11.8-5.7,38.15,38.15,0,0,1,12.8-2.2q12,0,19.7,6.9t7.7,21.9q0,4-.5,9.4t-1.1,11.2q-.6,5.8-1.1,11.4c-.34,3.74-.5,7.07-.5,10q0,16,10.4,16a16.78,16.78,0,0,0,4.5-.7,50,50,0,0,0,4.8-1.6c1.53-.6,2.9-1.2,4.1-1.8a10.09,10.09,0,0,0,2.4-1.5c.13-.13.3,0,.5.3a5.19,5.19,0,0,1,.5,1.3,3.67,3.67,0,0,1,.1,1.4,1.58,1.58,0,0,1-.3.8q-1.61,1-6.9,3.8t-11.8,5.7q-6.51,2.91-12.9,5.2t-10.2,2.3q-4.6,0-6.3-2.2a7.37,7.37,0,0,1-1.7-4.6,19.85,19.85,0,0,1,.5-4q.5-2.4,1.3-7.8.79-5.79,1.5-13.6t.7-16.8q0-17.6-6.5-26.7t-16.3-9.1a24.25,24.25,0,0,0-11,2.4,25.11,25.11,0,0,0-8.2,6.5,32.63,32.63,0,0,0-5.4,9.4A44.15,44.15,0,0,0,719.65,102.38Z" transform="translate(-0.2 -0.01)" style="fill:#fff"/></svg>
